<?xml version="1.0" standalone="no"?><!DOCTYPE svg PUBLIC "-//W3C//DTD SVG 1.1//EN" "http://www.w3.org/Graphics/SVG/1.1/DTD/svg11.dtd"><svg t="1784367016681" class="icon" viewBox="0 0 1024 1024" version="1.1" xmlns="http://www.w3.org/2000/svg" p-id="1303" data-darkreader-inline-fill="" xmlns:xlink="http://www.w3.org/1999/xlink" width="200" height="200"><path d="M781.038933 102.673067c39.492267-1.979733 77.9264 6.9632 105.642667 34.645333 27.716267 27.716267 36.625067 66.1504 34.645333 105.642667-1.9456 39.492267-14.779733 83.899733-35.362133 130.013866-19.626667 44.032-47.104 91.067733-81.066667 139.025067 33.9968 47.957333 61.44 95.0272 81.066667 139.025067 20.5824 46.08 33.416533 90.5216 35.362133 130.013866 1.979733 39.492267-6.9632 77.9264-34.645333 105.642667-27.716267 27.716267-66.1504 36.625067-105.642667 34.645333-39.492267-1.9456-83.899733-14.779733-130.013866-35.362133-44.032-19.626667-91.067733-47.104-139.025067-81.066667-47.957333 33.9968-95.0272 61.44-139.025067 81.066667-46.08 20.5824-90.5216 33.416533-130.013866 35.362133-39.492267 1.979733-77.9264-6.929067-105.642667-34.645333-27.682133-27.716267-36.625067-66.1504-34.645333-105.642667 1.9456-39.492267 14.779733-83.899733 35.362133-130.013866 19.626667-44.032 47.035733-91.067733 81.032533-139.025067-33.9968-47.957333-61.405867-95.0272-81.032533-139.025067-20.5824-46.08-33.416533-90.5216-35.362133-130.013866-1.979733-39.492267 6.929067-77.9264 34.645333-105.642667 27.716267-27.716267 66.1504-36.625067 105.642667-34.645333 39.492267 1.9456 83.899733 14.779733 130.013866 35.362133 44.032 19.626667 91.067733 47.035733 139.025067 81.032533 47.957333-33.9968 95.0272-61.405867 139.025067-81.032533 46.08-20.5824 90.5216-33.416533 130.013866-35.362133zM262.4512 569.207467c-25.873067 38.331733-46.762667 75.3664-62.0544 109.636266-18.568533 41.642667-28.125867 77.482667-29.525333 105.5744-1.365333 28.125867 5.393067 44.612267 14.7456 53.9648 9.352533 9.386667 25.838933 16.1792 53.930666 14.779734 28.125867-1.365333 64-10.9568 105.608534-29.525334 34.269867-15.291733 71.2704-36.2496 109.602133-62.122666a1295.5648 1295.5648 0 0 1-101.1712-91.136 1294.6432 1294.6432 0 0 1-91.136-101.1712z m499.029333 0a1295.2576 1295.2576 0 0 1-192.273066 192.3072c38.331733 25.9072 75.3664 46.830933 109.636266 62.122666 41.642667 18.568533 77.482667 28.125867 105.5744 29.525334 28.125867 1.365333 44.612267-5.393067 53.9648-14.779734 9.386667-9.352533 16.145067-25.838933 14.7456-53.930666-1.365333-28.125867-10.922667-64-29.525333-105.608534-15.291733-34.269867-36.181333-71.304533-62.122667-109.636266zM512 304.128a1214.5664 1214.5664 0 0 0-110.114133 97.757867A1214.5664 1214.5664 0 0 0 304.128 512a1214.122667 1214.122667 0 0 0 97.757867 110.114133A1213.610667 1213.610667 0 0 0 512 719.837867a1212.689067 1212.689067 0 0 0 110.114133-97.723734A1213.1328 1213.1328 0 0 0 719.837867 512a1213.610667 1213.610667 0 0 0-97.723734-110.114133A1214.0544 1214.0544 0 0 0 512 304.128z m-34.133333 211.421867V512a34.133333 34.133333 0 1 1 68.266666 0v3.549867a34.133333 34.133333 0 0 1-68.266666 0z m-238.2848-344.746667c-28.125867-1.365333-44.612267 5.461333-53.9648 14.813867-9.386667 9.352533-16.1792 25.838933-14.779734 53.930666 1.365333 28.125867 10.9568 64 29.525334 105.608534 15.291733 34.269867 36.181333 71.2704 62.122666 109.602133a1294.813867 1294.813867 0 0 1 91.136-101.137067 1294.267733 1294.267733 0 0 1 101.137067-91.136c-38.331733-25.941333-75.332267-46.830933-109.568-62.122666-41.642667-18.568533-77.482667-28.125867-105.608533-29.525334z m544.8704 0c-28.125867 1.4336-64 10.990933-105.608534 29.559467-34.269867 15.291733-71.304533 36.181333-109.636266 62.122666a1294.677333 1294.677333 0 0 1 101.1712 91.136 1295.5648 1295.5648 0 0 1 91.136 101.137067c25.873067-38.331733 46.830933-75.332267 62.122666-109.568 18.568533-41.642667 28.125867-77.482667 29.525334-105.608533 1.365333-28.125867-5.393067-44.612267-14.779734-53.9648-9.352533-9.386667-25.838933-16.1792-53.930666-14.779734z" fill="#000000" p-id="1304" data-darkreader-inline-fill="" style="--darkreader-inline-fill: var(--darkreader-background-000000, #000000);"></path></svg>